<svg width="11" height="20" viewBox="0 0 11 20" fill="none" xmlns="http://www.w3.org/2000/svg">
<path fill-rule="evenodd" clip-rule="evenodd" d="M2.90913 10.0795V19.7494C2.90913 19.89 3.01913 20 3.15969 20H6.74705C6.88762 20 6.99762 19.89 6.99762 19.7494V9.92054H9.60105C9.72939 9.92054 9.8394 9.82274 9.85162 9.68826L10.1022 6.72983C10.1144 6.58313 9.99829 6.45477 9.85162 6.45477H6.99762V4.35208C6.99762 3.85697 7.39486 3.45966 7.88988 3.45966H9.8944C10.035 3.45966 10.145 3.34963 10.145 3.20905V0.250611C10.145 0.110024 10.035 0 9.8944 0H6.5026C4.51641 0 2.90301 1.61369 2.90301 3.60024V6.45477H1.10628C0.965717 6.45477 0.855713 6.56479 0.855713 6.70538V9.66381C0.855713 9.8044 0.965717 9.91442 1.10628 9.91442H2.90301V10.0795H2.90913Z" fill="#232323"/>
</svg>
